<svg width="50" height="49" viewBox="0 0 50 49" fill="none" xmlns="http://www.w3.org/2000/svg">
<path d="M25 48.4688C11.6211 48.4687 0.78125 37.6289 0.78125 24.25C0.78125 10.8711 11.6211 0.03125 25 0.03125C38.3789 0.03125 49.2188 10.8711 49.2188 24.25C49.2188 37.6289 38.3789 48.4688 25 48.4688ZM13.9648 25.9102L27.1484 39.0938C28.0273 39.9727 29.5898 39.9727 30.4688 39.0938L32.1289 37.4336C33.0078 36.5547 33.0078 34.9922 32.1289 34.1133L22.168 24.25L32.1289 14.2891C33.0078 13.4102 33.0078 11.8477 32.1289 10.9688L30.4688 9.30859C29.5898 8.42969 28.0273 8.42969 27.1484 9.30859L13.9648 22.5898C12.9883 23.4687 12.9883 24.9336 13.9648 25.9102Z" fill="#543F32"/>
</svg>
