<svg width="50" height="49" viewBox="0 0 50 49" fill="none" xmlns="http://www.w3.org/2000/svg">
<path d="M25 0.53125C38.3789 0.53125 49.2188 11.3711 49.2188 24.75C49.2188 38.1289 38.3789 48.9688 25 48.9688C11.6211 48.9688 0.78125 38.1289 0.78125 24.75C0.78125 11.3711 11.6211 0.53125 25 0.53125ZM36.0352 23.0898L22.8516 9.90625C21.9727 9.02734 20.4102 9.02734 19.5312 9.90625L17.8711 11.5664C16.9922 12.4453 16.9922 14.0078 17.8711 14.8867L27.832 24.75L17.8711 34.7109C16.9922 35.5898 16.9922 37.1523 17.8711 38.0312L19.5312 39.6914C20.4102 40.5703 21.9727 40.5703 22.8516 39.6914L36.0352 26.4102C37.0117 25.5312 37.0117 24.0664 36.0352 23.0898Z" fill="#543F32"/>
</svg>
