<svg width="20" height="147" viewBox="0 0 20 147" fill="none" xmlns="http://www.w3.org/2000/svg">
<path d="M5.772 3.47048C5.772 2.48648 6.048 1.44248 6.492 0.770484L8.46 0.842484V1.47848L6.504 1.99448C6.324 2.41448 6.264 2.79848 6.264 3.31448C6.264 4.53848 6.84 5.25848 7.848 5.25848C8.676 5.25848 9.108 4.89848 9.576 3.81848L9.816 3.26648C10.5 1.71848 11.292 0.902484 12.66 0.902484C14.232 0.902484 15.108 2.19848 15.108 4.01048C15.108 4.94648 14.868 5.73848 14.436 6.36248L12.564 6.27848V5.64248L14.448 5.12648C14.58 4.83848 14.628 4.56248 14.628 4.20248C14.628 3.13448 14.1 2.39048 13.152 2.39048C12.3 2.39048 11.832 2.89448 11.448 3.77048L11.184 4.37048C10.392 6.18248 9.684 6.80648 8.376 6.80648C6.816 6.80648 5.772 5.58248 5.772 3.47048ZM5.808 11.0026C5.808 9.20264 6.996 7.78664 9.12 7.78664C11.4 7.78664 12.624 9.38264 12.624 11.2546C12.624 12.4906 11.856 13.4506 10.824 13.6426C10.44 13.5346 10.272 13.2946 10.272 12.9346C10.272 12.4906 10.512 12.1546 11.244 12.1066L12.156 11.9266C12.204 11.7706 12.216 11.6146 12.216 11.4466C12.216 10.3186 11.148 9.49064 9.336 9.49064C7.584 9.49064 6.576 10.3546 6.576 11.6866C6.576 12.3946 6.888 12.9706 7.452 13.4266L7.296 13.6426C6.288 13.0666 5.808 12.2866 5.808 11.0026ZM6 15.3638V14.5118H6.36L6.444 15.3878C7.14 15.3998 8.16 15.4118 8.82 15.4118H9.72C10.524 15.4118 10.98 15.3998 11.568 15.3638L11.652 14.4278H11.94L12.6 16.7798L12.504 16.9358L10.836 17.0318C11.976 17.4158 12.624 18.2198 12.624 18.9638C12.624 19.4918 12.408 19.9358 11.82 20.0558C11.304 20.0318 10.944 19.7918 10.944 19.2518C10.944 18.8558 11.184 18.5918 11.568 18.2918L11.676 18.1958C11.316 17.6678 10.776 17.3078 9.876 17.0318H8.82L6.468 17.0558L6.36 18.1718H6V15.3638ZM5.808 23.6129C5.808 21.7049 7.104 20.3609 9.24 20.3609C11.376 20.3609 12.624 21.8489 12.624 23.6129C12.624 25.3889 11.388 26.8769 9.24 26.8769C7.08 26.8769 5.808 25.5089 5.808 23.6129ZM6.204 23.6129C6.204 24.5849 7.2 25.1489 9.216 25.1489C11.244 25.1489 12.216 24.5849 12.216 23.6129C12.216 22.6409 11.244 22.0769 9.216 22.0769C7.2 22.0769 6.204 22.6409 6.204 23.6129ZM6 28.6303V27.7303H6.36L6.444 28.6423L8.82 28.6663H14.976L15.036 27.7303H15.36L15.828 30.1543L15.72 30.3343L13.812 30.2863H8.82C8.064 30.2863 7.2 30.2983 6.432 30.3223L6.36 31.2223H6V28.6303ZM6 32.8959V31.9959H6.36L6.444 32.9079L8.82 32.9319H14.976L15.036 31.9959H15.36L15.828 34.4199L15.72 34.5999L13.812 34.5519H8.82C8.064 34.5519 7.2 34.5639 6.432 34.5879L6.36 35.4879H6V32.8959Z" fill="#543F32"/>
<path d="M9.29289 146.707C9.68341 147.098 10.3166 147.098 10.7071 146.707L17.0711 140.343C17.4616 139.953 17.4616 139.319 17.0711 138.929C16.6805 138.538 16.0474 138.538 15.6569 138.929L10 144.586L4.34314 138.929C3.95262 138.538 3.31945 138.538 2.92893 138.929C2.5384 139.319 2.5384 139.953 2.92893 140.343L9.29289 146.707ZM9 46L9 146L11 146L11 46L9 46Z" fill="#543F32"/>
</svg>
